<?xml version="1.0" standalone="no"?>
<!DOCTYPE svg PUBLIC "-//W3C//DTD SVG 20010904//EN"
 "http://www.w3.org/TR/2001/REC-SVG-20010904/DTD/svg10.dtd">
<svg version="1.0" xmlns="http://www.w3.org/2000/svg"
 width="238.000000pt" height="92.000000pt" viewBox="0 0 238.000000 92.000000"
 preserveAspectRatio="xMidYMid meet">

<g transform="translate(0.000000,92.000000) scale(0.100000,-0.100000)"
fill="#000000" stroke="none">
<path d="M1883 694 c-56 -21 -127 -84 -153 -139 -28 -58 -29 -157 -2 -218 78
-176 321 -212 445 -66 39 45 67 119 67 175 0 87 -73 196 -160 239 -47 24 -144
29 -197 9z m157 -52 c15 -16 34 -49 41 -73 17 -61 25 -67 46 -31 44 77 61 -2
18 -82 l-25 -47 20 -41 c36 -76 20 -101 -50 -78 -35 12 -40 11 -72 -14 -43
-32 -51 -32 -94 1 -32 24 -39 25 -68 15 -71 -26 -89 -3 -56 71 l20 46 -21 40
c-27 52 -37 121 -18 121 8 0 22 -14 31 -30 20 -34 38 -39 38 -10 0 39 33 102
64 121 46 28 92 25 126 -9z"/>
<path d="M1994 546 c-10 -26 4 -48 28 -44 17 2 23 10 23 28 0 18 -6 26 -23 28
-13 2 -25 -3 -28 -12z"/>
<path d="M1894 539 c-8 -14 11 -33 25 -25 16 10 13 36 -3 36 -8 0 -18 -5 -22
-11z"/>
<path d="M1913 433 c9 -9 19 -14 23 -11 10 10 -6 28 -24 28 -15 0 -15 -1 1
-17z"/>
<path d="M1991 441 c-25 -7 -35 -32 -25 -63 8 -26 23 -22 36 10 7 15 21 35 32
44 21 17 21 18 1 17 -11 -1 -31 -4 -44 -8z"/>
<path d="M395 608 c-3 -8 -4 -70 -3 -139 3 -102 6 -124 18 -124 11 0 16 15 18
60 3 66 15 87 46 83 18 -3 22 -12 26 -73 4 -53 9 -70 20 -70 11 0 16 13 18 45
7 100 -20 142 -78 121 l-29 -10 -3 56 c-3 54 -21 82 -33 51z"/>
<path d="M212 565 c-89 -39 -72 -203 23 -221 61 -11 122 36 98 75 -10 16 -9
20 2 25 30 11 13 26 -30 26 -25 0 -45 -2 -45 -5 0 -3 12 -16 26 -29 23 -19 25
-25 15 -44 -8 -15 -21 -22 -41 -22 -62 0 -93 98 -49 154 26 33 71 35 93 5 15
-22 36 -18 36 6 0 16 -50 45 -77 45 -10 -1 -33 -7 -51 -15z"/>
<path d="M1090 461 c0 -101 2 -121 15 -121 10 0 15 10 15 34 0 32 2 34 42 39
51 7 78 35 78 82 0 53 -27 77 -93 83 l-57 4 0 -121z m104 73 c34 -33 5 -94
-45 -94 -29 0 -29 1 -29 55 0 54 0 55 29 55 16 0 37 -7 45 -16z"/>
<path d="M960 540 c0 -10 -8 -24 -17 -30 -13 -8 -14 -13 -5 -16 7 -4 12 -27
12 -64 0 -66 19 -95 54 -86 12 3 24 6 29 6 4 0 7 7 7 15 0 11 -7 14 -25 9 -25
-6 -25 -5 -25 55 0 58 1 61 25 61 16 0 25 6 25 15 0 9 -9 15 -25 15 -18 0 -25
5 -25 20 0 11 -7 20 -15 20 -8 0 -15 -9 -15 -20z"/>
<path d="M630 507 c-51 -26 -62 -104 -21 -141 9 -9 31 -19 49 -22 67 -14 120
90 75 145 -23 27 -71 35 -103 18z m76 -43 c32 -49 -10 -109 -60 -86 -21 9 -26
18 -26 50 0 21 5 43 12 50 20 20 56 14 74 -14z"/>
<path d="M812 505 c-33 -24 -25 -56 20 -80 23 -12 38 -27 38 -39 0 -16 -5 -18
-40 -12 -31 5 -40 3 -40 -8 0 -34 92 -29 111 6 14 25 -11 65 -46 74 -16 4 -25
13 -25 26 0 17 5 20 30 15 25 -6 50 7 38 19 -14 14 -66 13 -86 -1z"/>
<path d="M1303 510 c-36 -15 -27 -29 13 -23 29 5 40 2 50 -12 24 -33 18 -45
-16 -33 -65 22 -110 -52 -54 -89 25 -16 28 -16 55 -1 27 16 29 16 38 0 5 -9
12 -14 15 -11 9 9 -6 138 -18 154 -15 19 -56 26 -83 15z m62 -115 c0 -13 -8
-21 -24 -23 -28 -4 -46 11 -37 33 9 25 61 16 61 -10z"/>
<path d="M1452 499 c3 -13 17 -54 31 -91 l26 -66 -25 -37 c-25 -37 -24 -66 1
-45 52 43 134 271 93 258 -7 -3 -19 -33 -28 -67 -8 -34 -19 -62 -24 -62 -5 0
-18 28 -30 62 -12 35 -27 65 -35 67 -10 3 -12 -2 -9 -19z"/>
</g>
</svg>
